<svg height="512pt" viewBox="-57 0 512 512.00032" width="512pt" xmlns="http://www.w3.org/2000/svg" xmlns:xlink="http://www.w3.org/1999/xlink"><linearGradient id="a" gradientTransform="matrix(.363614 0 0 -.363614 -56.684719 497.41129)" gradientUnits="userSpaceOnUse" x1="223.3946" x2="1212.2297" y1="363.8869" y2="1352.722"><stop offset="0" stop-color="#41dfd0"/><stop offset="1" stop-color="#ee83ef"/></linearGradient><path d="m180.777344 407.230469h34.921875c4.824219 0 8.734375-3.910157 8.734375-8.730469v-34.925781c0-4.820313-3.910156-8.730469-8.734375-8.730469h-34.921875c-4.820313 0-8.730469 3.910156-8.730469 8.730469v34.925781c0 4.820312 3.910156 8.730469 8.730469 8.730469zm8.730468-34.925781h17.460938v17.464843h-17.460938zm-110.539062-201.332032c-14.074219-19.535156-41.320312-23.960937-60.855469-9.886718-17.214843 12.402343-23 35.402343-13.699219 54.472656l11.464844 23.574218c2.105469 4.339844 7.332032 6.144532 11.667969 4.035157h.003906l62.808594-30.558594c4.335937-2.113281 6.136719-7.335937 4.027344-11.671875l-7.097657-14.597656 102.21875-49.765625v79.449219c-18.691406 3.96875-32.644531 19.617187-34.449218 38.644531-11.03125 6.113281-17.890625 17.71875-17.933594 30.328125v183.351562c0 4.820313 3.90625 8.730469 8.730469 8.730469h.871093c4.179688 20.308594 22.046876 34.894531 42.78125 34.921875h17.460938c20.738281-.027344 38.605469-14.613281 42.785156-34.921875h.871094c4.820312 0 8.730469-3.910156 8.730469-8.730469v-183.351562c-.042969-12.582032-6.878907-24.164063-17.871094-30.285156-1.773437-19.070313-15.769531-34.757813-34.515625-38.6875v-79.449219l96.6875 47.039062c-7.449219 22.847657 5.03125 47.410157 27.882812 54.859375 4.339844 1.417969 8.875 2.140625 13.441407 2.144532 16.710937-.003907 31.960937-9.535157 39.289062-24.558594l11.453125-23.574219c2.109375-4.335937.304688-9.5625-4.027344-11.671875-.003906 0-.003906 0-.007812 0l-62.808594-30.558594c-4.335937-2.109375-9.5625-.308594-11.671875 4.027344v.003906l-6.488281 13.332032-92.546875-45.03125 101.601563-49.339844c5.210937 7.234375 12.53125 12.679687 20.953124 15.59375 4.597657 1.59375 9.429688 2.410156 14.292969 2.417968 24.136719-.050781 43.664063-19.664062 43.609375-43.800781-.011718-6.578125-1.511718-13.066406-4.382812-18.980469l-11.460938-23.574218c-2.117187-4.332032-7.34375-6.128906-11.675781-4.015625l-62.808594 30.558593c-4.335937 2.105469-6.144531 7.332032-4.035156 11.667969.007813.011719.011719.027344.019531.039063l7.175782 14.753906-104.492188 50.789062v-15.777343c0-4.820313-3.90625-8.730469-8.730469-8.730469-4.820312 0-8.730469 3.910156-8.730469 8.730469v15.785156l-94.109374-45.8125c7.03125-23.015625-5.929688-47.371094-28.945313-54.402344-20.523437-6.269531-42.554687 3.339844-51.929687 22.640625l-11.453126 23.574219c-2.113281 4.335937-.3125 9.558594 4.023438 11.671875l62.808594 30.558594c4.332031 2.113281 9.558594.316406 11.675781-4.015625l6.800781-13.96875 89.925782 43.757812-99.257813 48.28125zm-51.21875 52.65625-7.636719-15.714844c-6.527343-12.910156-1.355469-28.667968 11.554688-35.195312 12.910156-6.527344 28.664062-1.355469 35.191406 11.554688.125.242187.242187.484374.355469.730468l7.640625 15.714844zm293.742188-38.078125 7.640624-15.714843 47.144532 22.910156-7.636719 15.714844c-6.328125 13.019531-22.011719 18.445312-35.03125 12.121093-13.015625-6.328125-18.441406-22.011719-12.117187-35.03125zm49.417968-165.097656 7.640625 15.714844c6.328125 13.019531.902344 28.703125-12.117187 35.03125-13.015625 6.328125-28.703125.90625-35.03125-12.113281l-7.640625-15.714844zm-163.941406 474.085937h-17.460938c-11.097656-.015624-20.984374-7.003906-24.699218-17.460937h66.859375c-3.710938 10.457031-13.601563 17.445313-24.699219 17.460937zm34.925781-34.925781h-87.308593v-139.691406h87.308593zm0-174.011719v16.859376h-87.308593v-16.859376c0-9.644531 7.816406-17.464843 17.460937-17.464843h52.386719c9.640625 0 17.460937 7.820312 17.460937 17.464843zm-43.65625-52.988281c11.082031.019531 20.953125 7.011719 24.648438 17.460938h-49.292969c3.691406-10.449219 13.5625-17.441407 24.644531-17.460938zm-120.90625-170.933593-7.636719 15.714843-47.105468-22.890625 7.640625-15.71875c6.328125-13.019531 22.007812-18.445312 35.027343-12.117187 13.019532 6.324219 18.445313 22.007812 12.121094 35.027343zm0 0" fill="url(#a)"/></svg>