<svg id="Capa_1" enable-background="new 0 0 512 512" height="512" viewBox="0 0 512 512" width="512" xmlns="http://www.w3.org/2000/svg"><g><g><path clip-rule="evenodd" d="m205.718 239.006c31.86-31.889 31.86-83.601 0-115.49-31.888-31.861-83.599-31.861-115.487 0-31.86 31.889-31.86 83.601 0 115.49 31.888 31.862 83.598 31.862 115.487 0z" fill="#fde588" fill-rule="evenodd"/></g><g><path clip-rule="evenodd" d="m205.718 123.516c-28.249-28.222-72.036-31.469-103.812-9.687 30.797 7.335 56.302 29.257 69.488 58.487 2.856-6.047 6.803-11.731 11.815-16.743 9.659-9.659 21.81-15.343 34.38-17.023-3.304-5.347-7.252-10.386-11.871-15.034z" fill="#fdd76f" fill-rule="evenodd"/></g><g><path clip-rule="evenodd" d="m236.99 139.111c14.754-24.638 41.155-41.072 71.28-41.072 23.293 0 44.375 9.827 59.549 25.646 26.709-8.287 57.002-1.876 78.139 19.29 18.926 18.926 26.065 45.16 21.418 69.602 22.397 15.511 37.124 41.856 37.124 71.758 0 47.68-37.46 86.317-83.711 86.317h-225.038c-46.223 0-83.711-38.637-83.711-86.317 0-36.845 22.369-68.286 53.866-80.689-1.624-17.163 4.144-34.913 17.302-48.072 14.615-14.615 34.912-20.103 53.782-16.463z" fill="#eff6ff" fill-rule="evenodd"/></g><g><path clip-rule="evenodd" d="m420.789 370.651c40.847 0 74.836-30.153 82.227-70.05.98-5.264 1.484-10.723 1.484-16.267 0-5.572-.504-11.031-1.484-16.295-4.256-23.042-17.414-42.836-35.64-55.463 4.647-24.442-2.492-50.676-21.418-69.602-21.138-21.166-51.43-27.578-78.139-19.29-14.362-14.951-33.96-24.554-55.714-25.562 59.549 18.422 133.041 175.937 73.604 272.529z" fill="#d9eeff" fill-rule="evenodd"/></g><g><path clip-rule="evenodd" d="m93.114 308.16c10.107-16.883 28.193-28.138 48.826-28.138 15.958 0 30.405 6.747 40.791 17.582 18.31-5.684 39.084-1.288 53.558 13.215 12.991 12.963 17.862 30.937 14.67 47.708 15.342 10.611 25.449 28.67 25.449 49.136 0 32.673-25.673 59.159-57.366 59.159h-154.204c-31.664 0-57.338-26.486-57.338-59.159 0-25.226 15.314-46.756 36.9-55.267-1.12-11.759 2.828-23.938 11.843-32.925 10.022-10.023 23.937-13.802 36.871-11.311z" fill="#a6e0fa" fill-rule="evenodd"/></g><g><path clip-rule="evenodd" d="m160.755 466.823h58.289c31.692 0 57.366-26.486 57.366-59.159 0-13.999-4.731-26.878-12.627-37.013-3.64-4.676-7.951-8.763-12.823-12.123 3.192-16.771-1.68-34.745-14.67-47.708-14.474-14.503-35.248-18.898-53.558-13.215-7.307-7.643-16.63-13.215-27.073-15.875 37.936 43.145 45.971 134.725 5.096 185.093z" fill="#75cef9" fill-rule="evenodd"/></g><g><path d="m52.321 99.172c1.443 1.338 3.272 1.999 5.096 1.999 2.016 0 4.025-.808 5.503-2.402 2.815-3.038 2.635-7.783-.403-10.599l-19.095-17.695c-3.039-2.816-7.784-2.634-10.599.403-2.815 3.038-2.635 7.783.403 10.599z"/><path d="m12.143 145.771c.097 0 .194-.002.292-.005l24.833-.952c4.139-.159 7.366-3.643 7.208-7.782s-3.631-7.35-7.782-7.208l-24.833.952c-4.139.159-7.366 3.643-7.208 7.782.155 4.041 3.48 7.213 7.49 7.213z"/><path d="m99.409 77.485c.094 0 .189-.001.284-.005 4.139-.154 7.37-3.634 7.215-7.774l-.924-24.806c-.154-4.139-3.62-7.394-7.774-7.215-4.139.154-7.37 3.634-7.215 7.774l.924 24.806c.15 4.043 3.476 7.22 7.49 7.22z"/><path d="m224.86 227.847c-2.947 2.911-2.976 7.659-.065 10.606 1.467 1.485 3.401 2.229 5.336 2.229 1.903 0 3.809-.721 5.27-2.164 15.365-15.177 34.455-15.176 49.82 0 2.947 2.912 7.696 2.881 10.606-.065s2.881-7.696-.065-10.606c-21.203-20.943-49.697-20.944-70.902 0z"/><path d="m352.848 194.002c15.365-15.176 34.455-15.176 49.82 0 1.462 1.444 3.366 2.164 5.27 2.164 1.935 0 3.87-.744 5.336-2.229 2.911-2.947 2.881-7.696-.065-10.606-21.205-20.943-49.697-20.943-70.902 0-2.947 2.911-2.976 7.659-.065 10.606 2.91 2.946 7.659 2.976 10.606.065z"/><path d="m354.738 298.149c-2.947 2.911-2.976 7.66-.065 10.606 1.467 1.485 3.401 2.229 5.336 2.229 1.903 0 3.809-.721 5.27-2.164 15.377-15.188 34.465-15.191 49.816-.004 2.945 2.913 7.693 2.887 10.606-.058 2.913-2.944 2.887-7.693-.058-10.606-21.19-20.962-49.685-20.964-70.905-.003z"/><path d="m475.509 209.237c3.486-26.263-5.394-52.712-24.244-71.562-21.369-21.397-52.139-29.771-81.265-22.394-16.884-15.991-38.633-24.742-61.73-24.742-30.225 0-57.9 15.017-74.985 40.421-3.984-.458-7.967-.545-11.909-.3-3.064-4.424-6.529-8.597-10.358-12.449-34.763-34.733-91.326-34.732-126.094.005-34.732 34.764-34.732 91.329.002 126.094 6.665 6.665 14.237 12.134 22.548 16.357-1.932 7.659-2.935 15.594-2.935 23.668 0 .113.002.225.003.338-5.752 4.185-10.87 9.365-15.124 15.416-14.195-1.202-28.276 3.875-38.472 14.072-8.982 8.954-14.015 20.913-14.229 33.452-22.162 11.017-36.717 34.494-36.717 60.051 0 36.756 29.086 66.659 64.837 66.659h25.365c4.142 0 7.5-3.358 7.5-7.5s-3.358-7.5-7.5-7.5h-25.365c-27.48 0-49.837-23.174-49.837-51.659 0-21.301 12.92-40.708 32.151-48.291 3.109-1.226 5.032-4.361 4.715-7.688-.955-10.018 2.571-19.823 9.68-26.91 7.905-7.906 19.179-11.366 30.149-9.25 3.095.596 6.235-.808 7.854-3.512 9.18-15.335 25.027-24.49 42.392-24.49 13.372 0 25.936 5.424 35.377 15.273 1.967 2.051 4.921 2.813 7.638 1.973 16.339-5.073 33.976-.724 46.037 11.361 10.736 10.713 15.447 26.04 12.6 40.997-.555 2.915.661 5.883 3.102 7.571 13.911 9.621 22.215 25.683 22.215 42.967 0 28.485-22.37 51.659-49.866 51.659h-94.629c-4.142 0-7.5 3.358-7.5 7.5s3.358 7.5 7.5 7.5h94.629c35.767 0 64.866-29.903 64.866-66.659 0-10.406-2.362-20.471-6.712-29.513h42.271c4.142 0 7.5-3.358 7.5-7.5s-3.358-7.5-7.5-7.5h-52.163c-2.508-2.867-5.267-5.531-8.267-7.946 2.024-18.307-4.32-36.592-17.439-49.683-14.924-14.953-36.293-20.986-56.693-16.269-11.869-10.822-26.961-16.73-42.964-16.73-7.65 0-15.067 1.357-21.998 3.911 2.899-29.336 21.734-55.187 48.711-65.81 3.109-1.225 5.033-4.358 4.719-7.685-1.479-15.631 4.039-30.962 15.138-42.062 12.324-12.324 29.915-17.706 47.059-14.402 3.096.599 6.235-.806 7.855-3.511 14.034-23.435 38.275-37.426 64.845-37.426 20.474 0 39.7 8.288 54.137 23.337 1.967 2.05 4.921 2.813 7.635 1.971 25.054-7.775 52.111-1.097 70.613 17.431 16.475 16.475 23.709 39.988 19.353 62.897-.554 2.913.661 5.879 3.098 7.567 21.222 14.698 33.892 39.218 33.892 65.592 0 43.46-34.188 78.817-76.21 78.817h-67.108c-4.142 0-7.5 3.358-7.5 7.5s3.358 7.5 7.5 7.5h67.108c50.293 0 91.21-42.086 91.21-93.817 0-29.665-13.556-57.386-36.491-75.097zm-297.604-58.967c-12.959 12.96-20.001 30.403-19.763 48.549-14.926 6.944-27.705 17.85-37.182 31.788-3.382 4.974-6.259 10.224-8.618 15.686-6.15-3.359-11.785-7.568-16.805-12.588-28.892-28.918-28.892-75.971-.005-104.884 28.918-28.892 75.969-28.891 104.867-.019 1.582 1.592 3.068 3.27 4.5 4.988-10.029 3.234-19.311 8.797-26.994 16.48z"/><path d="m67.384 404.701c-2.95 2.908-2.985 7.656-.078 10.606s7.656 2.984 10.606.078c6.646-6.549 14.564-6.551 21.185-.008 1.462 1.445 3.367 2.166 5.271 2.166 1.934 0 3.868-.744 5.335-2.228 2.912-2.946 2.884-7.695-.062-10.606-12.424-12.279-29.801-12.282-42.257-.008z"/><path d="m140.511 348.81c4.298-4.23 9.018-4.233 13.292-.01 1.462 1.445 3.367 2.166 5.271 2.166 1.935 0 3.868-.744 5.335-2.228 2.912-2.946 2.884-7.695-.062-10.606-10.099-9.979-24.228-9.984-34.358-.01-2.952 2.906-2.989 7.654-.083 10.606 2.904 2.95 7.653 2.988 10.605.082z"/><path d="m204.542 428.601c6.644-6.547 14.577-6.547 21.22 0 2.95 2.908 7.699 2.872 10.606-.078 2.908-2.95 2.873-7.699-.078-10.606-12.446-12.265-29.831-12.265-42.277 0-2.95 2.908-2.985 7.656-.078 10.606 1.468 1.489 3.405 2.236 5.343 2.236 1.902 0 3.804-.719 5.264-2.158z"/></g></g></svg>